<svg xmlns="http://www.w3.org/2000/svg" viewBox="0 0 64 64">
  <rect width="64" height="64" rx="14" fill="#111827"/>
  <rect x="10" y="12" width="44" height="34" rx="7" fill="#f8fafc"/>
  <rect x="10" y="12" width="44" height="34" rx="7" fill="none" stroke="#c7d2fe" stroke-width="3"/>
  <rect x="15" y="37" width="34" height="5" rx="2.5" fill="#e0e7ff"/>
  <circle cx="21" cy="39.5" r="2.2" fill="#6366f1"/>
  <circle cx="29" cy="39.5" r="2.2" fill="#22c55e"/>
  <circle cx="37" cy="39.5" r="2.2" fill="#f59e0b"/>
  <path d="M19 22h17c3.3 0 6 2.7 6 6v1.5c0 3.3-2.7 6-6 6H25l-7 6v-6h-1c-3.3 0-6-2.7-6-6V28c0-3.3 2.7-6 6-6h2z" fill="#6366f1"/>
  <path d="M21 27h16M21 32h10" stroke="#fff" stroke-width="3" stroke-linecap="round"/>
  <path d="M47 45l5 10-6-2-3 5-5-10z" fill="#f8fafc" stroke="#6366f1" stroke-width="2.5" stroke-linejoin="round"/>
</svg>
